<svg width="18" height="18" viewBox="0 0 18 18" fill="none" xmlns="http://www.w3.org/2000/svg">
<path d="M9 18.0002C4.0293 18.0002 0 13.9709 0 9.00024C0 4.02954 4.0293 0.000244141 9 0.000244141C13.9707 0.000244141 18 4.02954 18 9.00024C18 13.9709 13.9707 18.0002 9 18.0002ZM6.201 10.0532L6.2127 10.0469L6.9957 12.6299C7.0965 12.9098 7.2351 12.9602 7.4034 12.9368C7.5726 12.9143 7.6617 12.8234 7.7724 12.7172L8.8416 11.684L11.1366 13.3832C11.556 13.6145 11.8575 13.4948 11.9619 12.9944L13.4532 5.95464C13.6179 5.29944 13.3299 5.03664 12.8214 5.24544L4.0617 8.62944C3.4641 8.86884 3.4677 9.20364 3.9537 9.35214L6.201 10.0532Z" fill="white"/>
</svg>
