<svg width="18" height="18" viewBox="0 0 18 18" fill="none" xmlns="http://www.w3.org/2000/svg">
<path d="M9 18.0005C4.0293 18.0005 0 13.9712 0 9.00049C0 4.02979 4.0293 0.000488281 9 0.000488281C13.9707 0.000488281 18 4.02979 18 9.00049C18 13.9712 13.9707 18.0005 9 18.0005ZM6.201 10.0535L6.2127 10.0472L6.9957 12.6302C7.0965 12.9101 7.2351 12.9605 7.4034 12.9371C7.5726 12.9146 7.6617 12.8237 7.7724 12.7175L8.8416 11.6843L11.1366 13.3835C11.556 13.6148 11.8575 13.4951 11.9619 12.9947L13.4532 5.95489C13.6179 5.29969 13.3299 5.03689 12.8214 5.24569L4.0617 8.62969C3.4641 8.86909 3.4677 9.20389 3.9537 9.35239L6.201 10.0535Z" fill="#9B9B9B"/>
</svg>
